<svg t="1693588382304" class="icon" viewBox="0 0 1024 1024" version="1.1" xmlns="http://www.w3.org/2000/svg" p-id="4838" width="200" height="200"><path d="M912 48H112c-35.296 0-64 28.704-64 64v800c0 35.296 28.704 64 64 64h800c35.296 0 64-28.704 64-64V112c0-35.296-28.704-64-64-64zM112 912V112h800l0.064 800H112z m256.896-720a32 32 0 0 0-32 32v105.888H224a32 32 0 0 0 0 64h144.896a32 32 0 0 0 32-32V224a32 32 0 0 0-32-32z m415.968 137.888H672V224a32 32 0 1 0-64 0v137.888a32 32 0 0 0 32 32h144.864a32 32 0 1 0 0-64zM368.896 640H224a32 32 0 1 0 0 64h112.896v105.92a32 32 0 1 0 64 0V672a32 32 0 0 0-32-32z m415.968 0H640a32 32 0 0 0-32 32v137.92a32 32 0 1 0 64 0V704h112.864a32 32 0 1 0 0-64z" fill="#333333" p-id="4839"></path></svg>
