<svg t="1693588450197" class="icon" viewBox="0 0 1024 1024" version="1.1" xmlns="http://www.w3.org/2000/svg" p-id="9635" width="200" height="200"><path d="M485.04 335.11c-7.34 0-14.24-4.53-16.91-11.83-9.4-25.73-5.91-61.07 10.37-105.02 11.51-31.06 25.31-55.21 25.89-56.22 4.95-8.62 15.95-11.59 24.57-6.64 8.62 4.95 11.59 15.95 6.65 24.57-0.13 0.23-13.08 22.94-23.53 51.28-12.72 34.48-16.32 62.78-10.14 79.69 3.41 9.34-1.39 19.67-10.73 23.08a18.29 18.29 0 0 1-6.17 1.09z" fill="#77AF2F" p-id="9636"></path><path d="M544.88 251.99c-1.29 0-2.61-0.14-3.92-0.43-10.41-2.31-21.19-9.48-32.05-21.31-7.02-7.64-11.72-14.64-12.24-15.41-5.5-8.28-3.25-19.45 5.03-24.95 8.27-5.5 19.43-3.25 24.94 5.01 6.17 9.21 16.95 20.37 22.13 21.53 9.7 2.16 15.82 11.77 13.67 21.48-1.87 8.37-9.31 14.08-17.56 14.08z" fill="#77AF2F" p-id="9637"></path><path d="M538.67 245.58s-7.81 81.88 111.48 50.13c-0.01 0.01-17.02-81.98-111.48-50.13zM398.18 376.17c-10.43 56.69-44.93 106.3-68.83 158.54-25.6 55.96-25.93 116.71 7.87 170.03 35.26 55.62 97.41 79.01 161.38 79.01 47.26 0 134.71-6.95 183.12-59.07 58.92-63.44 62.58-182.23-2.25-246.96-88.67-88.54-63.16-113-98.17-154.71-24.18-28.81-162.97-56.37-183.12 53.16z" fill="#9CD34C" p-id="9638"></path><path d="M467.31 801.75c-35.77 0-69.99-7.01-98.95-20.28-32.82-15.03-58.94-37.61-77.63-67.09-35.45-55.94-38.66-122.4-9.04-187.16 7.41-16.2 15.84-32.2 23.98-47.67 18.89-35.86 36.72-69.73 43.51-106.64 8.42-45.78 37.08-77.33 80.7-88.85 23.71-6.26 51.52-6.4 78.29-0.4 25.29 5.67 45.56 15.8 55.61 27.77 15.15 18.05 20.75 33.92 26.16 49.26 8.54 24.21 18.22 51.65 70.94 104.29 33.77 33.72 53.02 83.57 52.81 136.77-0.2 51.85-18.46 101.12-50.09 135.18-23.66 25.48-57.61 43.75-100.91 54.32-28.55 6.97-60.64 10.5-95.38 10.5zM384.6 379.43c-7.78 42.31-27.75 80.23-47.07 116.9-7.92 15.04-16.11 30.59-23.1 45.87-11.93 26.08-17.55 52.3-16.72 77.93 0.87 26.6 8.75 51.83 23.42 74.98 16.72 26.38 57.95 70.64 146.17 70.64 44.97 0 126.84-6.93 169.93-53.32 25.56-27.51 40.31-67.91 40.47-110.82 0.17-43.66-15.23-84.18-42.25-111.16-58.51-58.42-70.12-91.34-79.45-117.79-5.13-14.54-8.83-25.04-19.79-38.09-8.44-10.05-55.09-26.82-97.14-15.71-30.22 7.99-48.55 28.37-54.47 60.57zM617.64 310.4c-25.07 0-45.19-6.29-60.16-18.86-28.69-24.09-25.68-61.15-25.54-62.71 0.64-7.07 5.38-13.1 12.1-15.4 38.33-13.11 71.19-12.15 97.67 2.88 37.32 21.17 46.46 62.48 46.83 64.23 1.98 9.35-3.68 18.61-12.9 21.11-21.57 5.83-40.93 8.75-58 8.75z m-48.71-66.82c1.46 6.58 4.73 14.65 11.95 20.6 12.82 10.56 35.33 13 65.72 7.27-4.56-8.26-11.82-17.78-22.93-23.99-14.32-8.01-32.69-9.3-54.74-3.88z" fill="#77AF2F" p-id="9639"></path></svg>
